<svg width="44" height="44" viewBox="0 0 44 44" fill="none" xmlns="http://www.w3.org/2000/svg">
<path d="M40.0386 7.81958H34.2953L33.2992 18.7105C36.1125 19.0443 39.0447 18.2542 41.3276 16.5343V9.10847C41.3275 8.39665 40.7504 7.81958 40.0386 7.81958Z" fill="#3CB271"/>
<path d="M30.7658 18.106L31.7066 7.81958H22.002C21.2902 7.81958 20.713 8.39665 20.713 9.10856V18.4953C23.9819 17.2728 27.4708 17.1301 30.7658 18.106Z" fill="#3CB271"/>
<path d="M30.4308 20.7012C27.5515 19.748 24.4634 19.836 21.5728 20.9267C30.4054 23.4054 30.5967 37.5384 22.7518 43.9957H40.0385C40.7503 43.9957 41.3274 43.4187 41.3274 42.7067V19.6072C38.0779 21.4246 34.0973 21.9232 30.4308 20.7012Z" fill="#3CB271"/>
<path d="M24.8912 26.9254C23.1517 23.3737 19.3749 22.1508 15.7617 24.1353C16.5306 19.1735 19.0895 17.6807 19.0954 17.6721C19.6897 17.2804 19.8539 16.481 19.4622 15.8865C19.0705 15.2921 18.2712 15.1278 17.6767 15.5196C17.1661 15.8636 16.6467 16.2456 15.9024 17.1787C15.3864 16.1827 14.6105 15.141 13.464 14.479C10.7414 12.9071 7.20943 14.216 7.06042 14.2725C6.48764 14.4896 6.14673 15.08 6.24513 15.6846C6.27074 15.8419 6.90306 19.5551 9.62574 21.1269C10.8204 21.8166 12.2303 21.986 13.6098 21.8591C13.406 22.6071 13.2398 23.4329 13.1295 24.3425C9.51359 22.1477 5.50314 23.1332 3.64569 26.9252C1.31601 31.681 3.28982 39.0018 7.90467 42.3803C9.97395 43.895 12.2299 44.3661 14.2685 43.7116C16.4875 44.4242 18.7562 43.7538 20.6323 42.3803C25.2498 39 27.2192 31.6778 24.8912 26.9254Z" fill="#3CB271"/>
<path d="M34.7746 2.57787H40.0471C40.759 2.57787 41.3361 2.0008 41.3361 1.28889C41.3361 0.576984 40.759 0 40.0471 0H33.5982C32.9319 0 32.3753 0.507977 32.3146 1.1715L31.9424 5.24167H34.531L34.7746 2.57787Z" fill="#3CB271"/>
</svg>
