<svg width="44" height="44" viewBox="0 0 44 44" fill="none" xmlns="http://www.w3.org/2000/svg">
<g clip-path="url(#clip0)">
<path d="M21.9999 41.0271C21.7773 41.0271 21.5548 40.9696 21.3555 40.8544C21.1389 40.7295 15.9937 37.7421 10.7748 33.2409C7.68154 30.5731 5.21239 27.9271 3.43607 25.3765C1.13742 22.076 -0.0185255 18.9013 0.000122887 15.9405C0.021951 12.4953 1.25592 9.25526 3.475 6.81722C5.73154 4.3381 8.74296 2.9729 11.9547 2.9729C16.0708 2.9729 19.8341 5.2786 22 8.93111C24.1659 5.27868 27.9291 2.9729 32.0453 2.9729C35.0796 2.9729 37.9745 4.20473 40.1972 6.4415C42.6365 8.89613 44.0224 12.3644 43.9997 15.9568C43.981 18.9125 42.8034 22.0824 40.4996 25.3783C38.7178 27.9276 36.2521 30.5724 33.171 33.2394C27.9711 37.7402 22.8629 40.7275 22.648 40.8524C22.4476 40.9688 22.2237 41.0271 21.9999 41.0271Z" fill="#CD5053"/>
</g>
<defs>
<clipPath id="clip0">
<rect width="44" height="44" fill="white"/>
</clipPath>
</defs>
</svg>
