<svg width="44" height="44" viewBox="0 0 44 44" fill="none" xmlns="http://www.w3.org/2000/svg">
<path d="M25.2993 12.682C25.3529 12.7355 25.4391 12.7363 25.4926 12.6827C25.5457 12.6296 25.5461 12.5437 25.4917 12.4893L25.3012 12.2988C25.2475 12.2452 25.1613 12.2444 25.1079 12.298C25.0548 12.3512 25.0544 12.4369 25.1088 12.4913L25.2993 12.682Z" fill="#DD9B59"/>
<path d="M26.1665 12.4037C26.2417 12.4037 26.3026 12.3433 26.3026 12.2663V11.9968C26.3026 11.9209 26.2423 11.8594 26.1665 11.8594C26.0913 11.8594 26.0304 11.9198 26.0304 11.9968V12.2663C26.0304 12.3422 26.0908 12.4037 26.1665 12.4037Z" fill="#DD9B59"/>
<path d="M27.0337 12.682L27.2242 12.4913C27.2779 12.4376 27.2786 12.3516 27.2252 12.2979C27.1719 12.2449 27.0863 12.2445 27.0318 12.2989L26.8412 12.4894C26.7875 12.543 26.7868 12.6293 26.8403 12.6827C26.8936 12.7358 26.9792 12.7362 27.0337 12.682Z" fill="#DD9B59"/>
<path d="M27.5265 13.2205H26.9715C26.9069 12.8342 26.5713 12.5398 26.1665 12.5398C25.7619 12.5398 25.4261 12.8343 25.3615 13.2205H24.8016C24.7256 13.2205 24.6641 13.281 24.6641 13.3566C24.6641 13.4318 24.7247 13.4927 24.8016 13.4927H27.5265C27.6022 13.4927 27.6637 13.4323 27.6637 13.3566C27.6637 13.2815 27.6033 13.2205 27.5265 13.2205Z" fill="#DD9B59"/>
<path d="M27.227 13.6497H25.2208C25.1447 13.6497 25.0832 13.7102 25.0832 13.7858C25.0832 13.861 25.1438 13.9218 25.2208 13.9218H27.227C27.3027 13.9218 27.3643 13.8615 27.3643 13.7858C27.3643 13.7107 27.3038 13.6497 27.227 13.6497Z" fill="#DD9B59"/>
<path d="M22 8.67969C21.288 8.67969 20.7109 8.10263 20.7109 7.39062V5.67188C20.7109 4.95987 21.288 4.38281 22 4.38281C22.712 4.38281 23.2891 4.95987 23.2891 5.67188V7.39062C23.2891 8.10263 22.712 8.67969 22 8.67969Z" fill="#DD9B59"/>
<path d="M14.6967 10.6371C14.2509 10.6371 13.8178 10.4062 13.5791 9.99226L12.7198 8.50379C12.3636 7.88746 12.5747 7.09891 13.1914 6.74308C13.8081 6.3869 14.5963 6.59839 14.9521 7.21473L15.8115 8.70319C16.1677 9.31986 15.9565 10.1084 15.3399 10.4642C15.1368 10.5814 14.9152 10.6371 14.6967 10.6371Z" fill="#DD9B59"/>
<path d="M9.34671 15.9847C9.12817 15.9847 8.90628 15.929 8.70352 15.8115L7.21472 14.9521C6.59839 14.5963 6.38723 13.8081 6.74307 13.1914C7.0989 12.5748 7.88745 12.3636 8.50378 12.7198L9.99258 13.5791C10.6089 13.935 10.8201 14.7232 10.4642 15.3399C10.2256 15.7534 9.79217 15.9847 9.34671 15.9847Z" fill="#DD9B59"/>
<path d="M7.39062 23.2891H5.67188C4.95987 23.2891 4.38281 22.712 4.38281 22C4.38281 21.288 4.95987 20.7109 5.67188 20.7109H7.39062C8.10263 20.7109 8.67969 21.288 8.67969 22C8.67969 22.712 8.10263 23.2891 7.39062 23.2891Z" fill="#DD9B59"/>
<path d="M38.3281 23.2891H36.6094C35.8974 23.2891 35.3203 22.712 35.3203 22C35.3203 21.288 35.8974 20.7109 36.6094 20.7109H38.3281C39.0401 20.7109 39.6172 21.288 39.6172 22C39.6172 22.712 39.0401 23.2891 38.3281 23.2891Z" fill="#DD9B59"/>
<path d="M34.6533 15.9847C34.2078 15.9847 33.7744 15.7534 33.5358 15.3399C33.1796 14.7232 33.3911 13.935 34.0074 13.5791L35.4959 12.7198C36.1125 12.3636 36.9008 12.5748 37.2569 13.1914C37.6128 13.8081 37.4016 14.5963 36.7849 14.9521L35.2965 15.8115C35.0937 15.929 34.8718 15.9847 34.6533 15.9847Z" fill="#DD9B59"/>
<path d="M29.3033 10.6371C29.0848 10.6371 28.8632 10.5814 28.6601 10.4642C28.0435 10.1081 27.8323 9.31986 28.1885 8.70319L29.0479 7.21473C29.4037 6.59839 30.1919 6.3869 30.8086 6.74308C31.4253 7.09891 31.6364 7.88746 31.2802 8.50379L30.4209 9.99226C30.1822 10.4062 29.7491 10.6371 29.3033 10.6371Z" fill="#DD9B59"/>
<path d="M32.3088 25.0253C32.5955 24.0528 32.7422 23.0376 32.7422 22C32.7422 16.0767 27.9233 11.2578 22 11.2578C16.1552 11.2578 11.386 15.9501 11.2608 21.7654C13.5449 21.0732 15.98 20.7109 18.4766 20.7109C23.619 20.7109 28.5074 22.2581 32.3088 25.0253Z" fill="#DD9B59"/>
<path d="M42.7109 39.6172H22.0859C21.3739 39.6172 20.7969 39.0401 20.7969 38.3281C20.7969 35.6432 22.0342 33.1336 24.281 31.2611C26.46 29.4453 29.343 28.4453 32.3984 28.4453C35.4539 28.4453 38.3369 29.4453 40.5158 31.2611C42.7626 33.1336 44 35.6432 44 38.3281C44 39.0401 43.4229 39.6172 42.7109 39.6172Z" fill="#DD9B59"/>
<path d="M22.6308 29.2805C24.5221 27.7044 26.8377 26.6356 29.343 26.1555C26.2213 24.3069 22.4404 23.2891 18.4766 23.2891C13.5939 23.2891 8.99188 24.8198 5.51779 27.5987C1.95978 30.4454 0 34.2558 0 38.3281C0 39.0401 0.577057 39.6172 1.28906 39.6172H18.4403C18.2973 39.2137 18.2188 38.78 18.2188 38.3281C18.2188 34.8644 19.7854 31.6515 22.6308 29.2805Z" fill="#DD9B59"/>
</svg>
