<svg width="44" height="44" viewBox="0 0 44 44" fill="none" xmlns="http://www.w3.org/2000/svg">
<path d="M23.1823 30.9959C22.9379 30.9516 22.7069 30.8516 22.5072 30.7038C22.3076 30.556 22.1445 30.3643 22.0308 30.1434C21.8901 29.8724 21.8272 29.5677 21.849 29.2631C21.8709 28.9586 21.9766 28.666 22.1545 28.4178L25.152 24.3031L21.5186 19.3084C21.4991 19.2819 21.4874 19.2505 21.4847 19.2178C21.4821 19.185 21.4887 19.1521 21.5036 19.1229C21.5186 19.0936 21.5415 19.0691 21.5696 19.0521C21.5977 19.0351 21.6301 19.0262 21.6629 19.0265H22.8454C22.9877 19.0217 23.126 18.9784 23.2456 18.9011C23.3652 18.8238 23.4615 18.7155 23.5243 18.5877C23.5871 18.46 23.6141 18.3176 23.6023 18.1757C23.5905 18.0338 23.5404 17.8978 23.4573 17.7822L18.4008 10.3606C18.3827 10.3338 18.3723 10.3025 18.3706 10.2702C18.3689 10.2379 18.3761 10.2057 18.3912 10.1771C18.4064 10.1485 18.4291 10.1246 18.4568 10.1079C18.4845 10.0912 18.5162 10.0823 18.5486 10.0822H19.5729C19.6831 10.0802 19.7904 10.0466 19.8822 9.98561C19.9739 9.92458 20.0463 9.83857 20.0908 9.73773C20.1352 9.6369 20.1499 9.52545 20.1331 9.41654C20.1162 9.30763 20.0686 9.20582 19.9958 9.12311L15.3998 2.88749C15.3311 2.79545 15.2419 2.72072 15.1393 2.66923C15.0366 2.61775 14.9234 2.59094 14.8086 2.59094C14.6937 2.59094 14.5805 2.61775 14.4778 2.66923C14.3752 2.72072 14.286 2.79545 14.2173 2.88749L9.62138 9.12311C9.54884 9.20591 9.50145 9.3077 9.48477 9.41651C9.46809 9.52532 9.48282 9.63663 9.52723 9.73735C9.57163 9.83808 9.64387 9.92404 9.73545 9.98512C9.82702 10.0462 9.93414 10.0799 10.0442 10.0822H11.0686C11.1009 10.0823 11.1327 10.0912 11.1604 10.1079C11.1881 10.1246 11.2107 10.1485 11.2259 10.1771C11.2411 10.2057 11.2482 10.2379 11.2465 10.2702C11.2448 10.3025 11.2344 10.3338 11.2164 10.3606L6.15982 17.7822C6.07674 17.8981 6.02673 18.0344 6.01514 18.1765C6.00355 18.3186 6.03081 18.4612 6.09402 18.589C6.15722 18.7168 6.25399 18.8251 6.37396 18.9021C6.49394 18.9792 6.6326 19.0222 6.77513 19.0265H7.95763C7.99026 19.0268 8.02218 19.0361 8.04993 19.0532C8.07769 19.0704 8.10023 19.0948 8.1151 19.1238C8.12998 19.1528 8.13662 19.1854 8.13431 19.2179C8.132 19.2505 8.12083 19.2818 8.10201 19.3084L2.70513 26.7265C2.62207 26.8422 2.57196 26.9782 2.56017 27.1201C2.54837 27.2619 2.57531 27.4044 2.63813 27.5321C2.70095 27.6599 2.79729 27.7682 2.91685 27.8455C3.03642 27.9227 3.17472 27.9661 3.31701 27.9709H4.90513C4.936 27.9713 4.96625 27.9796 4.99294 27.9951C5.01963 28.0107 5.04184 28.0328 5.05742 28.0595C5.07299 28.0861 5.0814 28.1164 5.08182 28.1472C5.08224 28.1781 5.07466 28.2085 5.05982 28.2356L0.903881 35.6709C0.82082 35.7865 0.770715 35.9226 0.758915 36.0644C0.747116 36.2063 0.774064 36.3487 0.836884 36.4765C0.899704 36.6042 0.996037 36.7125 1.1156 36.7898C1.23516 36.8671 1.37347 36.9105 1.51576 36.9153H12.3783V40.5381C12.3782 40.6525 12.4007 40.7659 12.4445 40.8717C12.4883 40.9774 12.5524 41.0735 12.6334 41.1545C12.7143 41.2354 12.8104 41.2997 12.9161 41.3435C13.0219 41.3873 13.1352 41.4098 13.2497 41.4098H16.3692C16.4837 41.4098 16.597 41.3873 16.7027 41.3435C16.8085 41.2997 16.9046 41.2354 16.9855 41.1545C17.0664 41.0735 17.1306 40.9774 17.1744 40.8717C17.2181 40.7659 17.2406 40.6525 17.2406 40.5381V36.9153H20.5664C20.4698 36.6706 20.4328 36.4064 20.4585 36.1446C20.4842 35.8828 20.5718 35.6309 20.7142 35.4097L23.1823 30.9959Z" fill="#3CB271"/>
<path d="M43.1305 35.9508L39.9116 30.1951C39.8995 30.174 39.8931 30.1502 39.8932 30.1259C39.8933 30.1016 39.8998 30.0778 39.912 30.0569C39.9243 30.0359 39.9419 30.0186 39.963 30.0066C39.9841 29.9947 40.008 29.9885 40.0323 29.9888H41.2595C41.3694 29.9848 41.4763 29.9512 41.5687 29.8914C41.6611 29.8317 41.7356 29.7481 41.7844 29.6494C41.8331 29.5508 41.8543 29.4408 41.8456 29.3311C41.837 29.2214 41.7988 29.1161 41.7352 29.0263L37.5569 23.2857C37.5417 23.2652 37.5326 23.2408 37.5304 23.2154C37.5283 23.1899 37.5333 23.1644 37.5448 23.1416C37.5564 23.1188 37.5741 23.0997 37.5959 23.0865C37.6177 23.0732 37.6428 23.0662 37.6683 23.0664H38.5844C38.6946 23.0625 38.8017 23.0289 38.8944 22.969C38.987 22.9092 39.0616 22.8253 39.1104 22.7264C39.1592 22.6275 39.1802 22.5172 39.1713 22.4073C39.1624 22.2974 39.1239 22.1919 39.0598 22.1022L35.1442 16.3547C35.1299 16.334 35.1216 16.3097 35.1201 16.2846C35.1186 16.2595 35.1241 16.2345 35.1358 16.2123C35.1476 16.1901 35.1653 16.1715 35.1868 16.1586C35.2084 16.1457 35.2331 16.139 35.2583 16.1391H36.051C36.1365 16.138 36.2199 16.1124 36.2913 16.0652C36.3627 16.0181 36.4191 15.9515 36.4538 15.8732C36.4884 15.795 36.4999 15.7085 36.4868 15.6239C36.4737 15.5394 36.4366 15.4604 36.3799 15.3963L32.8207 10.5687C32.7678 10.4969 32.6987 10.4387 32.6192 10.3985C32.5396 10.3583 32.4517 10.3374 32.3625 10.3374C32.2734 10.3374 32.1855 10.3583 32.1059 10.3985C32.0263 10.4387 31.9573 10.4969 31.9043 10.5687L28.3451 15.3963C28.2884 15.4604 28.2514 15.5394 28.2383 15.6239C28.2252 15.7085 28.2366 15.795 28.2713 15.8732C28.3059 15.9515 28.3623 16.0181 28.4337 16.0652C28.5051 16.1124 28.5885 16.138 28.6741 16.1391H29.4668C29.4919 16.139 29.5166 16.1457 29.5382 16.1586C29.5598 16.1715 29.5774 16.1901 29.5892 16.2123C29.601 16.2345 29.6064 16.2595 29.6049 16.2846C29.6035 16.3097 29.5952 16.334 29.5809 16.3547L25.6652 22.1001C25.6008 22.1899 25.562 22.2955 25.5528 22.4056C25.5437 22.5157 25.5647 22.6262 25.6135 22.7254C25.6623 22.8245 25.7372 22.9085 25.83 22.9685C25.9228 23.0284 26.0302 23.062 26.1406 23.0657H27.0567C27.0823 23.0655 27.1073 23.0725 27.1292 23.0858C27.151 23.0991 27.1686 23.1182 27.1802 23.1409C27.1918 23.1637 27.1968 23.1892 27.1946 23.2147C27.1925 23.2401 27.1833 23.2645 27.1681 23.285L22.9898 29.0256C22.9262 29.1154 22.8881 29.2207 22.8794 29.3304C22.8708 29.4401 22.8919 29.5501 22.9407 29.6487C22.9895 29.7474 23.064 29.831 23.1564 29.8907C23.2488 29.9505 23.3556 29.9841 23.4656 29.9881H24.6928C24.717 29.9878 24.7409 29.994 24.7621 30.006C24.7832 30.0179 24.8008 30.0352 24.813 30.0562C24.8253 30.0771 24.8318 30.101 24.8318 30.1252C24.8319 30.1495 24.8256 30.1734 24.8134 30.1944L21.5945 35.9508C21.5309 36.0406 21.4928 36.1459 21.4841 36.2556C21.4755 36.3653 21.4967 36.4753 21.5454 36.5739C21.5942 36.6726 21.6687 36.7562 21.7611 36.8159C21.8535 36.8757 21.9603 36.9093 22.0703 36.9133H30.4795V40.6726C30.4795 40.8677 30.557 41.0548 30.6949 41.1927C30.8329 41.3307 31.02 41.4082 31.2151 41.4082H33.51C33.7051 41.4082 33.8922 41.3307 34.0301 41.1927C34.1681 41.0548 34.2456 40.8677 34.2456 40.6726V36.915H42.6548C42.765 36.9113 42.8722 36.8777 42.9648 36.8178C43.0575 36.758 43.1322 36.6741 43.181 36.5752C43.2298 36.4763 43.2509 36.366 43.242 36.256C43.2331 36.1461 43.1946 36.0406 43.1305 35.9508Z" fill="#3CB271"/>
</svg>
