<svg width="44" height="44" viewBox="0 0 44 44" fill="none" xmlns="http://www.w3.org/2000/svg">
<path d="M33.6016 0V3.86719H31.0234V0H28.4453V3.86719H25.8672V0H23.2891V3.86719H20.7109V0H18.1328V3.86719H15.5547V0H12.9766V3.86719H10.3984V0H7.82031V44H10.3984V40.1328H12.9766V44H15.5547V40.1328H18.1328V44H20.7109V40.1328H23.2891V44H25.8672V40.1328H28.4453V44H31.0234V40.1328H33.6016V44H36.1797V0H33.6016ZM29.7344 27.1562V34.8906H14.2656V27.1562H14.7038C14.4202 26.3312 14.2656 25.4804 14.2656 24.5781C14.2656 20.9945 18.8031 18.2875 20.7109 17.3336V16.6116C19.2155 16.0703 18.1328 14.6523 18.1328 12.9766C18.1328 10.8366 19.8601 9.10938 22 9.10938V11.6875C21.278 11.6875 20.7109 12.2546 20.7109 12.9766C20.7109 13.6984 21.278 14.2656 22 14.2656C22.722 14.2656 23.2891 13.6984 23.2891 12.9757H25.8672C25.8672 14.6523 24.7845 16.0703 23.2891 16.6116V17.3336C25.1969 18.2875 29.7344 20.9944 29.7344 24.5781C29.7344 25.4804 29.5797 26.3312 29.2962 27.1562H29.7344Z" fill="#7FCD50"/>
<path d="M22 19.5591C19.8146 20.6493 16.8438 22.7528 16.8438 24.5781C16.8438 25.5053 17.1414 26.3698 17.604 27.1562H26.396C26.8585 26.3698 27.1562 25.5053 27.1562 24.5781C27.1562 22.7528 24.1854 20.6493 22 19.5591Z" fill="#7FCD50"/>
<path d="M16.8438 29.7344H27.1562V32.3125H16.8438V29.7344Z" fill="#7FCD50"/>
</svg>
