<svg width="44" height="44" viewBox="0 0 44 44" fill="none" xmlns="http://www.w3.org/2000/svg">
<path d="M9.12649 33.6995L8.18461 32.6914L7.24274 33.6995C7.21043 33.734 6.44223 34.5593 5.66939 35.6631C4.53055 37.2896 3.97703 38.6403 3.97703 39.7925C3.97703 42.1126 5.86456 44 8.18461 44C10.5047 44 12.3921 42.1126 12.3921 39.7925C12.3921 38.6403 11.8386 37.2896 10.6998 35.6632C9.92708 34.5594 9.15889 33.7341 9.12649 33.6995Z" fill="#3CB271"/>
<path d="M21.5326 7.27702C23.0177 7.27702 24.2259 6.06882 24.2259 4.58382C24.2259 3.09873 23.0177 1.89062 21.5326 1.89062C20.0476 1.89062 18.8394 3.09882 18.8394 4.58382C18.8394 6.06891 20.0475 7.27702 21.5326 7.27702Z" fill="#3CB271"/>
<path d="M11.6483 9.16764C12.6879 9.16764 15.2604 8.78212 17.604 8.15942C17.6201 8.15512 17.6354 8.15074 17.6516 8.14645C16.789 7.20758 16.2614 5.95633 16.2614 4.58391C16.2614 3.21148 16.789 1.96023 17.6516 1.02128C17.6354 1.01698 17.6202 1.0126 17.604 1.0083C15.2604 0.385516 12.6879 0 11.6483 0C9.12082 0 7.06451 2.05631 7.06451 4.58382C7.06451 7.11133 9.12082 9.16764 11.6483 9.16764Z" fill="#3CB271"/>
<path d="M36.0009 4.58382C36.0009 2.05631 33.9446 0 31.417 0C30.3774 0 27.8049 0.385516 25.4614 1.00822C25.4452 1.01252 25.4299 1.0169 25.4138 1.0212C26.2764 1.96015 26.8041 3.21131 26.8041 4.58382C26.8041 5.95624 26.2764 7.20749 25.4138 8.14636C25.4299 8.15066 25.4452 8.15504 25.4614 8.15934C27.805 8.78212 30.3774 9.16755 31.417 9.16755C33.9446 9.16764 36.0009 7.11133 36.0009 4.58382Z" fill="#3CB271"/>
<path d="M38.3957 8.44281V11.1498H35.975C34.8784 11.1498 33.8991 11.6578 33.2579 12.4502V26.4366C33.8991 27.2286 34.8787 27.7358 35.975 27.7358H38.3957V30.4428H40.9739V8.44281H38.3957Z" fill="#3CB271"/>
<path d="M22.8218 11.2545V9.69513C22.409 9.79929 21.9774 9.85514 21.5327 9.85514C21.0881 9.85514 20.6564 9.7992 20.2437 9.69513V11.2545C18.3562 11.5619 16.6241 12.5353 15.3776 14.005H11.0483C6.62496 14.005 3.02625 17.6036 3.02625 22.0271V31.3083H13.5106V24.4894H15.4284C16.9532 26.251 19.1883 27.2848 21.5326 27.2848C23.8771 27.2848 26.1122 26.251 27.6369 24.4894H30.6797V14.005H27.6878C26.4413 12.5353 24.7092 11.5619 22.8218 11.2545Z" fill="#3CB271"/>
</svg>
