<svg width="44" height="44" viewBox="0 0 44 44" fill="none" xmlns="http://www.w3.org/2000/svg">
<path d="M15.4734 27.6099C15.4577 27.4806 15.4698 27.3495 15.5088 27.2253C15.5478 27.101 15.6129 26.9865 15.6996 26.8894C15.7863 26.7922 15.8928 26.7147 16.0118 26.6619C16.1309 26.6091 16.2598 26.5823 16.39 26.5833H16.9034C17.1514 26.014 17.5124 25.5011 17.9647 25.0757C18.4169 24.6502 18.9509 24.3211 19.5342 24.1083C19.751 23.5113 20.0894 22.966 20.5281 22.5068C20.9668 22.0476 21.4961 21.6846 22.0825 21.4408V21.0466C18.865 20.7808 18.6725 19.2133 15.5559 19.2133C14.4168 19.1813 13.2909 19.4635 12.3017 20.0291C11.0496 20.7038 9.64947 21.0571 8.22711 21.0571C6.80475 21.0571 5.40466 20.7038 4.15253 20.0291C3.35814 19.5836 2.47578 19.3177 1.56754 19.2499L3.6667 43.0833H20.1667L20.515 39.0866C17.8572 36.5033 16.1569 33.093 15.6934 29.4158L15.4734 27.6099Z" fill="#BC95CE"/>
<path d="M8.24986 19.2494C11.5774 19.2494 11.7057 17.4161 15.5832 17.4161C19.2499 17.4161 19.5615 19.0386 22.2565 19.2494C22.3482 19.2494 22.2565 19.4327 22.9165 11.9161H0.916531L1.40236 17.4161C4.43653 17.4161 5.08736 19.2494 8.24986 19.2494Z" fill="#BC95CE"/>
<path d="M42.3591 11.4307C41.0643 11.549 39.7614 11.3209 38.5838 10.7698C37.4061 10.2187 36.3962 9.36447 35.6574 8.29456C34.9187 7.22466 34.4777 5.97758 34.3795 4.68111C34.2814 3.38464 34.5298 2.0854 35.0991 0.916504C33.2691 1.07955 31.567 1.92357 30.3295 3.28157C29.092 4.63956 28.4094 6.4126 28.4166 8.24984C28.4166 16.0232 38.9949 18.4248 42.3591 11.4307Z" fill="#BC95CE"/>
<path d="M25.6664 43.0833H34.8331C35.3193 43.0833 35.7856 42.8902 36.1295 42.5463C36.4733 42.2025 36.6664 41.7362 36.6664 41.25H23.8331C23.8331 41.7362 24.0262 42.2025 24.3701 42.5463C24.7139 42.8902 25.1802 43.0833 25.6664 43.0833Z" fill="#BC95CE"/>
<path d="M17.4165 28.4161C17.9849 32.9994 19.8549 36.7669 23.8332 39.4161H36.6665C40.6449 36.7669 42.5149 32.9994 43.0832 28.4161H17.4165Z" fill="#BC95CE"/>
<path d="M21.083 25.6661C20.6965 25.6633 20.3139 25.7438 19.9612 25.9019C19.6085 26.0601 19.2939 26.2923 19.0388 26.5828H41.4605C41.2054 26.2923 40.8909 26.0601 40.5382 25.9019C40.1855 25.7438 39.8029 25.6633 39.4163 25.6661C39.417 25.2906 39.3408 24.919 39.1924 24.5742C39.044 24.2293 38.8265 23.9185 38.5535 23.6608C38.2804 23.4032 37.9574 23.2042 37.6045 23.0761C37.2515 22.948 36.8761 22.8936 36.5013 22.9161C36.3679 22.5387 36.1537 22.195 35.8737 21.9089C35.5937 21.6229 35.2546 21.4014 34.8801 21.26C34.5056 21.1186 34.1048 21.0606 33.7056 21.0902C33.3064 21.1197 32.9184 21.2361 32.5688 21.4311C32.3204 21.0412 31.9776 20.7202 31.5723 20.4979C31.1669 20.2755 30.712 20.1589 30.2497 20.1589C29.7873 20.1589 29.3324 20.2755 28.9271 20.4979C28.5217 20.7202 28.179 21.0412 27.9305 21.4311C27.5809 21.2361 27.193 21.1197 26.7938 21.0902C26.3946 21.0606 25.9937 21.1186 25.6193 21.26C25.2448 21.4014 24.9057 21.6229 24.6257 21.9089C24.3456 22.195 24.1314 22.5387 23.998 22.9161C23.6232 22.8936 23.2478 22.948 22.8949 23.0761C22.542 23.2042 22.219 23.4032 21.9459 23.6608C21.6728 23.9185 21.4553 24.2293 21.3069 24.5742C21.1585 24.919 21.0823 25.2906 21.083 25.6661Z" fill="#BC95CE"/>
</svg>
