<svg width="44" height="44" viewBox="0 0 44 44" fill="none" xmlns="http://www.w3.org/2000/svg">
<g clip-path="url(#clip0)">
<path d="M36.2645 6.70582C34.3303 4.92543 32.9669 2.89783 32.3281 1.06462C32.2263 0.772724 31.9665 0.564416 31.6595 0.528465C28.7844 0.191443 25.4952 0 22.0001 0C18.505 0 15.2159 0.191443 12.3406 0.528465C12.0337 0.564416 11.7736 0.772872 11.672 1.06462C11.0333 2.89797 9.66998 4.92558 7.73558 6.70582C6.07 8.23884 4.25662 9.33453 2.58453 9.91907C2.24041 10.0393 2.02056 10.3747 2.0466 10.7384C2.37311 15.2997 2.80985 21.2102 3.11225 24.5837C3.95333 33.9633 9.34908 38.0708 18.0804 41.5988L21.5591 43.8688C21.827 44.0436 22.1731 44.0436 22.441 43.8688L25.9195 41.5988C34.651 38.0708 40.0466 33.9633 40.8877 24.5837C41.1903 21.21 41.6268 15.2997 41.9534 10.7384C41.9794 10.3753 41.759 10.0392 41.4154 9.91907C39.7435 9.33453 37.9303 8.23884 36.2645 6.70582ZM37.4102 11.9652C37.9159 12.1087 38.2517 12.5873 38.2143 13.1116C37.963 16.6354 37.6131 21.3972 37.3732 24.07C36.6868 31.7265 32.1247 35.1112 25.4773 37.8123L22.6066 39.6857C22.4224 39.806 22.2112 39.8661 22.0001 39.8661C21.789 39.8661 21.5779 39.806 21.3937 39.6857L18.5229 37.8123C11.8756 35.1112 7.31334 31.7265 6.62687 24.07C6.38705 21.3957 6.0373 16.6346 5.78579 13.1116C5.74851 12.5873 6.08435 12.1087 6.59003 11.9652C7.86355 11.6042 9.24271 10.7817 10.4732 9.64936C11.8525 8.37968 12.8625 6.88291 13.2442 5.54281C13.366 5.11495 13.7317 4.80116 14.1732 4.74582C16.5465 4.44801 19.2531 4.29045 22.0001 4.29045C24.747 4.29045 27.4536 4.44786 29.8269 4.74582C30.2684 4.80116 30.6341 5.11495 30.7559 5.54281C31.1376 6.88291 32.1476 8.37968 33.5269 9.64936C34.7575 10.7817 36.1366 11.6042 37.4102 11.9652Z" fill="#55A8CE"/>
<path d="M28.8652 6.86679C26.7513 6.63274 24.3942 6.50964 22.0001 6.50964C19.6059 6.50964 17.249 6.63274 15.1351 6.86679C14.5397 8.38013 13.4185 9.95443 11.976 11.2823C10.759 12.4021 9.396 13.2773 8.06049 13.8059C8.3043 17.2029 8.61765 21.4237 8.83706 23.8719C9.43121 30.4964 13.18 33.2603 19.455 35.7957C19.603 35.8557 19.4617 35.7751 22.0001 37.4317C24.5382 35.7754 24.3973 35.8557 24.5453 35.7957C30.8201 33.2603 34.5691 30.4965 35.1631 23.8719C35.3825 21.4249 35.696 17.2037 35.9398 13.8059C34.6043 13.2775 33.2413 12.4022 32.0243 11.2823C30.5816 9.95443 29.4606 8.38013 28.8652 6.86679Z" fill="#55A8CE"/>
</g>
<defs>
<clipPath id="clip0">
<rect width="44" height="44" fill="white"/>
</clipPath>
</defs>
</svg>
