<svg width="44" height="44" viewBox="0 0 44 44" fill="none" xmlns="http://www.w3.org/2000/svg">
<path d="M40.1328 21.759C42.2653 21.759 44 20.0243 44 17.8918C44 15.7594 42.2653 14.0247 40.1328 14.0247H33.5159V12.7356C33.5159 10.6031 31.7812 8.86842 29.6487 8.86842H19.3362C17.2038 8.86842 15.4691 10.6031 15.4691 12.7356V14.0247H14.8598C13.5027 14.0247 12.1734 13.4746 11.2141 12.514L6.6017 7.90162C5.09599 6.39591 2.63895 6.39591 1.13325 7.90162C-0.368423 9.40587 -0.386985 11.8485 1.13325 13.3713L7.25628 19.4931C8.71653 20.9546 10.6602 21.759 12.7247 21.759H13.8399L21.8833 26.3286L14.3277 30.6211C13.6279 29.9248 12.6647 29.4934 11.6019 29.4934C9.46943 29.4934 7.73469 31.2281 7.73469 33.3606C7.73469 35.493 9.46943 37.2277 11.6019 37.2277C13.2802 37.2277 14.6977 36.1468 15.2316 34.6496H33.7533C34.2873 36.1468 35.7047 37.2277 37.3831 37.2277C39.5155 37.2277 41.2503 35.493 41.2503 33.3606C41.2503 31.2281 39.5155 29.4934 37.3831 29.4934C36.3203 29.4934 35.3569 29.9249 34.6572 30.6211L27.1016 26.3286L35.145 21.759H40.1328ZM11.6019 34.6496C10.8919 34.6496 10.3128 34.0718 10.3128 33.3606C10.3128 32.6493 10.8919 32.0715 11.6019 32.0715C12.3119 32.0715 12.8909 32.6493 12.8909 33.3606C12.8909 34.0718 12.3119 34.6496 11.6019 34.6496ZM37.3831 32.0715C38.0931 32.0715 38.6721 32.6493 38.6721 33.3606C38.6721 34.0718 38.0931 34.6496 37.3831 34.6496C36.6731 34.6496 36.094 34.0718 36.094 33.3606C36.094 32.6493 36.6731 32.0715 37.3831 32.0715ZM23.2034 11.4465H25.7815V14.0247H23.2034V11.4465ZM18.0472 12.7356C18.0472 12.0244 18.6262 11.4465 19.3362 11.4465H20.6253V14.0247H18.0472V12.7356ZM31.9921 32.0715H16.9929L24.4925 27.8109L31.9921 32.0715ZM24.4925 24.8464L19.0581 21.7591H29.9269L24.4925 24.8464ZM30.9378 14.0247H28.3597V11.4465H29.6487C30.3587 11.4465 30.9378 12.0244 30.9378 12.7356V14.0247Z" fill="#56BAC9"/>
</svg>
