<svg width="44" height="44" viewBox="0 0 44 44" fill="none" xmlns="http://www.w3.org/2000/svg">
<g clip-path="url(#clip0)">
<path d="M31.2115 43.0939C31.1081 43.2755 30.9967 43.4501 30.8785 43.6179C30.9762 43.6257 31.0742 43.631 31.1736 43.631H38.8489C40.1571 43.631 41.3253 42.9513 41.9738 41.8126C42.6167 40.6843 42.6066 39.3459 41.947 38.2331C41.1554 36.898 40.0003 35.8406 38.6525 35.1561C40.195 33.2991 40.097 30.5303 38.3571 28.79C36.5121 26.9451 33.5103 26.9454 31.6654 28.79C29.9255 30.5303 29.8275 33.2991 31.37 35.1561C31.0222 35.3327 30.6875 35.5345 30.3683 35.7594C30.6566 36.1249 30.9228 36.5096 31.1622 36.9131C32.3022 38.8363 32.3207 41.1469 31.2115 43.0939Z" fill="#868FD0"/>
<path d="M12.838 36.9131C13.0774 36.5096 13.3436 36.1249 13.6319 35.7594C13.3127 35.5345 12.978 35.3327 12.6302 35.1561C14.1728 33.2991 14.0747 30.5303 12.3348 28.79C10.4899 26.9451 7.48809 26.9454 5.64312 28.79C3.90322 30.5303 3.8052 33.2991 5.34771 35.1561C3.9999 35.8406 2.84478 36.8977 2.05321 38.2328C1.39358 39.3459 1.38351 40.6843 2.02636 41.8126C2.67492 42.9513 3.84313 43.631 5.15133 43.631H12.8266C12.926 43.631 13.024 43.6257 13.1217 43.6179C13.0035 43.4501 12.8921 43.2755 12.7887 43.0939C11.6796 41.1469 11.698 38.8363 12.838 36.9131Z" fill="#868FD0"/>
<path d="M18.3588 35.1561C17.011 35.8406 15.8559 36.8977 15.0647 38.2328C14.4047 39.3459 14.3946 40.6843 15.0375 41.8126C15.6864 42.9513 16.8546 43.631 18.1624 43.631H25.8377C27.1456 43.631 28.3141 42.9513 28.9627 41.8126C29.6055 40.6843 29.5955 39.3459 28.9358 38.2331C28.1443 36.898 26.9891 35.8406 25.6413 35.1561C27.1838 33.2991 27.0858 30.5303 25.3459 28.79C23.5013 26.9454 20.4992 26.9451 18.6542 28.79C16.9143 30.5303 16.8163 33.2991 18.3588 35.1561Z" fill="#868FD0"/>
<path d="M23.1202 24.3129L25.5221 20.1614H30.9882L33.3904 24.3129C33.6217 24.7127 34.0487 24.9588 34.5103 24.9588C34.9722 24.9588 35.3992 24.7124 35.6305 24.3129L38.0582 20.1174C41.398 19.7334 44 16.8887 44 13.4475V7.22916C44 3.52747 40.9882 0.515625 37.2865 0.515625H6.71353C3.01184 0.515625 0 3.52747 0 7.22916V13.4475C0 16.8887 2.60196 19.7334 5.94177 20.1174L8.36951 24.3129C8.6008 24.7127 9.0278 24.9588 9.48938 24.9588C9.95129 24.9588 10.3783 24.7124 10.6096 24.3129L13.0118 20.1614H18.4779L20.8798 24.3129C21.0161 24.5482 21.2205 24.7302 21.4599 24.84C21.6267 24.9165 21.8103 24.9588 22 24.9588C22.1897 24.9588 22.3733 24.9165 22.5401 24.84C22.7795 24.7302 22.9839 24.5482 23.1202 24.3129ZM11.6053 6.89749H32.3951C33.1098 6.89749 33.6892 7.4769 33.6892 8.19159C33.6892 8.90628 33.1098 9.48569 32.3951 9.48569H11.6053C10.8906 9.48569 10.3112 8.90628 10.3112 8.19159C10.3112 7.4769 10.8902 6.89749 11.6053 6.89749ZM11.6053 13.8363C10.8906 13.8363 10.3112 13.2569 10.3112 12.5422C10.3112 11.8275 10.8906 11.2481 11.6053 11.2481H25.0085C25.7232 11.2481 26.3026 11.8275 26.3026 12.5422C26.3026 13.2569 25.7232 13.8363 25.0085 13.8363H11.6053Z" fill="#868FD0"/>
</g>
<defs>
<clipPath id="clip0">
<rect width="44" height="44" fill="white"/>
</clipPath>
</defs>
</svg>
