<svg width="44" height="44" viewBox="0 0 44 44" fill="none" xmlns="http://www.w3.org/2000/svg">
<path d="M13.8359 44C16.3277 44 18.3477 41.98 18.3477 39.4883C18.3477 36.9965 16.3277 34.9766 13.8359 34.9766C11.3442 34.9766 9.32422 36.9965 9.32422 39.4883C9.32422 41.98 11.3442 44 13.8359 44Z" fill="#56BAC9"/>
<path d="M40.5457 27.8508L37.1586 26.8347H5.30836C5.26453 26.9661 5.24219 27.1037 5.24219 27.2423V37.5548C5.24219 38.2667 5.81934 38.8438 6.53125 38.8438H6.77669C7.10359 35.2356 10.1439 32.3985 13.8359 32.3985C17.528 32.3985 20.5683 35.2356 20.8952 38.8438H28.2611C28.5881 35.2356 31.6284 32.3985 35.3204 32.3985C39.0124 32.3985 42.0527 35.2356 42.3796 38.8438H42.625C43.3369 38.8438 43.9141 38.2667 43.9141 37.5548V32.378C43.9141 30.2746 42.5605 28.4552 40.5457 27.8508Z" fill="#56BAC9"/>
<path d="M35.3203 44C37.8121 44 39.832 41.98 39.832 39.4883C39.832 36.9965 37.8121 34.9766 35.3203 34.9766C32.8286 34.9766 30.8086 36.9965 30.8086 39.4883C30.8086 41.98 32.8286 44 35.3203 44Z" fill="#56BAC9"/>
<path d="M15.5547 15.6406H22.4297V24.2565H15.5547V15.6406Z" fill="#56BAC9"/>
<path d="M25.0078 15.6406V24.2565H33.9796L30.7405 17.7783C30.0812 16.4598 28.7558 15.6406 27.2816 15.6406H25.0078Z" fill="#56BAC9"/>
<path d="M12.9765 15.6406H11.8269C10.1597 15.6406 8.6854 16.7032 8.15817 18.2849L6.16769 24.2565H12.9765V15.6406Z" fill="#56BAC9"/>
<path d="M0.0859375 24.6641V31.5391C0.0859375 32.4883 0.855422 33.2578 1.80469 33.2578H2.66406V27.2422C2.66406 26.8257 2.73084 26.4143 2.86258 26.0192L3.88712 22.9453H1.80469C0.855422 22.9453 0.0859375 23.7148 0.0859375 24.6641Z" fill="#56BAC9"/>
<path d="M27.5859 11.7734C27.5859 11.0615 27.0088 10.4844 26.2969 10.4844H12.5469C11.835 10.4844 11.2578 11.0615 11.2578 11.7734V13.0625H27.5859V11.7734Z" fill="#56BAC9"/>
<path d="M25.8672 6.61719C25.8672 5.90528 25.29 5.32812 24.5781 5.32812H15.9844C15.2725 5.32812 14.6953 5.90528 14.6953 6.61719V7.90625H25.8672V6.61719Z" fill="#56BAC9"/>
</svg>
